<svg width="21" height="21" viewBox="0 0 21 21" fill="none" xmlns="http://www.w3.org/2000/svg">
<path d="M6.6096 16.5975C5.47952 16.5975 4.56519 17.5221 4.56519 18.6522C4.56519 19.7823 5.47952 20.7069 6.6096 20.7069C7.73967 20.7069 8.66428 19.7823 8.66428 18.6522C8.66428 17.5221 7.73967 16.5975 6.6096 16.5975ZM0.445557 1.18744C0.445557 1.75247 0.90786 2.21478 1.4729 2.21478H2.50024L6.19866 10.0123L4.81175 12.519C4.06179 13.8956 5.04804 15.5702 6.6096 15.5702H17.9103C18.4754 15.5702 18.9377 15.1079 18.9377 14.5429C18.9377 13.9778 18.4754 13.5155 17.9103 13.5155H6.6096L7.73967 11.4608H15.3934C16.1639 11.4608 16.8419 11.0396 17.1912 10.4027L20.8691 3.73524C21.2492 3.05719 20.7561 2.21478 19.9753 2.21478H4.77066L4.08234 0.745679C3.91797 0.38611 3.54812 0.160095 3.15773 0.160095H1.4729C0.90786 0.160095 0.445557 0.622398 0.445557 1.18744ZM16.883 16.5975C15.7529 16.5975 14.8386 17.5221 14.8386 18.6522C14.8386 19.7823 15.7529 20.7069 16.883 20.7069C18.0131 20.7069 18.9377 19.7823 18.9377 18.6522C18.9377 17.5221 18.0131 16.5975 16.883 16.5975Z" fill="white"/>
</svg>
