<svg width="31" height="29" viewBox="0 0 31 29" fill="none" xmlns="http://www.w3.org/2000/svg">
<path d="M17.4701 1.4817L1.94112 5.33529C0.863801 5.60264 0.224062 6.67839 0.491405 7.75571L3.37189 19.4049C3.63924 20.4822 4.71739 21.1316 5.79472 20.8643L21.3237 17.0107C22.401 16.7434 23.0505 15.6652 22.7831 14.5879L19.8929 2.94113C19.6256 1.8638 18.5474 1.21436 17.4701 1.4817ZM19.8715 15.3104L6.28358 18.6823C5.74977 18.8148 5.20464 18.4864 5.07217 17.9526L3.86792 13.0998L19.3969 9.2462L20.6012 14.099C20.7336 14.6328 20.4053 15.178 19.8715 15.3104ZM18.4335 5.36395L2.90452 9.21754L2.42282 7.27642L17.9518 3.42283L18.4335 5.36395Z" fill="black"/>
<path d="M27 12H11C9.89 12 9.01 12.89 9.01 14L9 26C9 27.11 9.89 28 11 28H27C28.11 28 29 27.11 29 26V14C29 12.89 28.11 12 27 12ZM26 26H12C11.45 26 11 25.55 11 25V20H27V25C27 25.55 26.55 26 26 26ZM27 16H11V14H27V16Z" fill="black"/>
<path d="M27 16H11V14H27V16Z" fill="white"/>
</svg>
