<svg width="22" height="22" viewBox="0 0 22 22" fill="none" xmlns="http://www.w3.org/2000/svg">
<path d="M15.7434 14.0144H14.7485L14.3959 13.6744C15.9072 11.9112 16.688 9.50572 16.2598 6.94911C15.6679 3.44795 12.746 0.652054 9.21968 0.223854C3.89237 -0.43104 -0.591136 4.05247 0.0637585 9.37978C0.491958 12.9061 3.28785 15.828 6.78902 16.4199C9.34562 16.8481 11.7511 16.0673 13.5143 14.556L13.8543 14.9086V15.9035L19.2068 21.256C19.7232 21.7724 20.567 21.7724 21.0833 21.256C21.5997 20.7397 21.5997 19.8959 21.0833 19.3795L15.7434 14.0144ZM8.18696 14.0144C5.05103 14.0144 2.51961 11.483 2.51961 8.34706C2.51961 5.21113 5.05103 2.67971 8.18696 2.67971C11.3229 2.67971 13.8543 5.21113 13.8543 8.34706C13.8543 11.483 11.3229 14.0144 8.18696 14.0144Z" fill="white"/>
</svg>
