<svg width="24" height="24" viewBox="0 0 24 24" fill="none" xmlns="http://www.w3.org/2000/svg">
<path d="M5.17406 5.54465H18.8259V7.85567C18.8259 8.43665 19.5631 8.72068 19.9863 8.30754L23.7952 4.70546C24.0683 4.44724 24.0683 4.04701 23.7952 3.7888L19.9863 0.186712C19.5631 -0.213519 18.8259 0.0705163 18.8259 0.651498V2.96251H3.80887C3.05802 2.96251 2.44369 3.54349 2.44369 4.25358V9.41786C2.44369 10.1279 3.05802 10.7089 3.80887 10.7089C4.55973 10.7089 5.17406 10.1279 5.17406 9.41786V5.54465ZM18.8259 18.4553H5.17406V16.1443C5.17406 15.5634 4.43686 15.2793 4.01365 15.6925L0.204778 19.2945C-0.0682594 19.5528 -0.0682594 19.953 0.204778 20.2112L4.01365 23.8133C4.43686 24.2135 5.17406 23.9295 5.17406 23.3485V21.0375H20.1911C20.942 21.0375 21.5563 20.4565 21.5563 19.7464V14.5821C21.5563 13.8721 20.942 13.2911 20.1911 13.2911C19.4403 13.2911 18.8259 13.8721 18.8259 14.5821V18.4553Z" fill="black"/>
</svg>
