<svg width="100" height="100" viewBox="0 0 100 100" fill="none" xmlns="http://www.w3.org/2000/svg">
<rect width="100" height="100" rx="12" fill="black"/>
<path d="M10.75 66L26.5 31H32.9L48.7 66H41.9L28.35 34.45H30.95L17.45 66H10.75ZM18 57.9L19.75 52.8H38.65L40.4 57.9H18ZM53.1512 66V31H68.4512C72.2512 31 75.5845 31.7333 78.4512 33.2C81.3178 34.6667 83.5512 36.7 85.1512 39.3C86.7512 41.9 87.5512 44.9667 87.5512 48.5C87.5512 52 86.7512 55.0667 85.1512 57.7C83.5512 60.3 81.3178 62.3333 78.4512 63.8C75.5845 65.2667 72.2512 66 68.4512 66H53.1512ZM59.6512 60.5H68.1512C70.7845 60.5 73.0512 60 74.9512 59C76.8845 58 78.3678 56.6 79.4012 54.8C80.4678 53 81.0012 50.9 81.0012 48.5C81.0012 46.0667 80.4678 43.9667 79.4012 42.2C78.3678 40.4 76.8845 39 74.9512 38C73.0512 37 70.7845 36.5 68.1512 36.5H59.6512V60.5Z" fill="white"/>
</svg>
